<svg width="28" height="28" viewBox="0 0 28 28" fill="none" xmlns="http://www.w3.org/2000/svg">
<path d="M13.9964 0.666992C6.63642 0.666992 0.663086 6.64033 0.663086 14.0003C0.663086 21.3603 6.63642 27.3337 13.9964 27.3337C21.3564 27.3337 27.3298 21.3603 27.3298 14.0003C27.3298 6.64033 21.3564 0.666992 13.9964 0.666992ZM13.9964 4.66699C16.2098 4.66699 17.9964 6.45366 17.9964 8.66699C17.9964 10.8803 16.2098 12.667 13.9964 12.667C11.7831 12.667 9.99642 10.8803 9.99642 8.66699C9.99642 6.45366 11.7831 4.66699 13.9964 4.66699ZM13.9964 23.6003C10.6631 23.6003 7.71642 21.8937 5.99642 19.307C6.03642 16.6537 11.3298 15.2003 13.9964 15.2003C16.6498 15.2003 21.9564 16.6537 21.9964 19.307C20.2764 21.8937 17.3298 23.6003 13.9964 23.6003Z" fill="black"/>
</svg>
