<svg width="28" height="25" viewBox="0 0 28 25" fill="none" xmlns="http://www.w3.org/2000/svg">
<path d="M19.9997 0C17.6797 0 15.453 1.08 13.9997 2.78667C12.5464 1.08 10.3197 0 7.99971 0C3.89305 0 0.666382 3.22667 0.666382 7.33333C0.666382 12.3733 5.19972 16.48 12.0664 22.72L13.9997 24.4667L15.933 22.7067C22.7997 16.48 27.333 12.3733 27.333 7.33333C27.333 3.22667 24.1064 0 19.9997 0ZM14.133 20.7333L13.9997 20.8667L13.8664 20.7333C7.51971 14.9867 3.33305 11.1867 3.33305 7.33333C3.33305 4.66667 5.33305 2.66667 7.99971 2.66667C10.053 2.66667 12.053 3.98667 12.7597 5.81333H15.253C15.9464 3.98667 17.9464 2.66667 19.9997 2.66667C22.6664 2.66667 24.6664 4.66667 24.6664 7.33333C24.6664 11.1867 20.4797 14.9867 14.133 20.7333Z" fill="#222222"/>
</svg>
