<svg width="27" height="28" viewBox="0 0 27 28" fill="none" xmlns="http://www.w3.org/2000/svg">
<path d="M8.16296 22.0003C6.6963 22.0003 5.50963 23.2003 5.50963 24.667C5.50963 26.1337 6.6963 27.3337 8.16296 27.3337C9.62963 27.3337 10.8296 26.1337 10.8296 24.667C10.8296 23.2003 9.62963 22.0003 8.16296 22.0003ZM0.162964 0.666992V3.33366H2.82963L7.62963 13.4537L5.82963 16.7203C5.6163 17.0937 5.4963 17.5337 5.4963 18.0003C5.4963 19.467 6.6963 20.667 8.16296 20.667H24.163V18.0003H8.72296C8.5363 18.0003 8.38963 17.8537 8.38963 17.667L8.42963 17.507L9.62963 15.3337H19.563C20.563 15.3337 21.443 14.787 21.8963 13.9603L26.6696 5.30699C26.7763 5.12033 26.8296 4.89366 26.8296 4.66699C26.8296 3.93366 26.2296 3.33366 25.4963 3.33366H5.7763L4.52296 0.666992H0.162964ZM21.4963 22.0003C20.0296 22.0003 18.843 23.2003 18.843 24.667C18.843 26.1337 20.0296 27.3337 21.4963 27.3337C22.963 27.3337 24.163 26.1337 24.163 24.667C24.163 23.2003 22.963 22.0003 21.4963 22.0003Z" fill="black"/>
</svg>
