<svg width="65" height="64" viewBox="0 0 65 64" fill="none" xmlns="http://www.w3.org/2000/svg">
<circle cx="32.5" cy="32" r="32" fill="#FF661A"/>
<g clip-path="url(#clip0_24764_211887)">
<path d="M50.5 18V46H54.5V18H50.5ZM42.5 46H46.5V18H42.5V46ZM36.5 18H12.5C11.4 18 10.5 18.9 10.5 20V44C10.5 45.1 11.4 46 12.5 46H36.5C37.6 46 38.5 45.1 38.5 44V20C38.5 18.9 37.6 18 36.5 18ZM24.5 23.5C26.98 23.5 29 25.52 29 28C29 30.48 26.98 32.5 24.5 32.5C22.02 32.5 20 30.48 20 28C20 25.52 22.02 23.5 24.5 23.5ZM33.5 42H15.5V40.5C15.5 37.5 21.5 36 24.5 36C27.5 36 33.5 37.5 33.5 40.5V42Z" fill="white"/>
</g>
<defs>
<clipPath id="clip0_24764_211887">
<rect width="48" height="48" fill="white" transform="translate(8.5 8)"/>
</clipPath>
</defs>
</svg>
